# xmcd
#
# Track frame offsets:
#	150
#	12346
#	20880
#	32920
#	43153
#	54326
#	65497
#	76992
#	88096
#	97951
#	110046
#	121640
#	133607
#	142845
#
# Disc length: 2059 seconds
#
# Revision: 0
# Processed by: cddbd v1.5.2PL0 Copyright (c) Steve Scherf et al.
# Submitted via: EasyCDDAExtractor 16.0.1.1
#
DISCID=b808090e
DTITLE=Wanda Jackson - Country Classics Vol 2 [Wanda Jackson]
DYEAR=1900
DGENRE=Country
TTITLE0=Stand By Your Man
TTITLE1=Leave My Baby Alone
TTITLE2=Wrong Kind Of Girl
TTITLE3=My Big Iron Skillet
TTITLE4=Hello Darlin'
TTITLE5=Break My Mind
TTITLE6=Two Seperate Bar Stools
TTITLE7=Please Help Me I'm Falling
TTITLE8=Your Good Girl's Gonna Go Bad
TTITLE9=Right Or Wrong
TTITLE10=One Minute Past Eternity
TTITLE11=Silver Threads And Golden Needles
TTITLE12=Truck Away My Lonesome Blues
TTITLE13=Jealous Heart
EXTD=
EXTT0=
EXTT1=
EXTT2=
EXTT3=
EXTT4=
EXTT5=
EXTT6=
EXTT7=
EXTT8=
EXTT9=
EXTT10=
EXTT11=
EXTT12=
EXTT13=
PLAYORDER=
